<svg width="512" height="512" xmlns="http://www.w3.org/2000/svg" enable-background="new 0 0 512 512">
 <g>
  <title>Layer 1</title>
  <rect id="svg_5" height="571.99998" width="596.99998" y="-40.33333" x="-61.00001" stroke="#000" fill="#007fff"/>
  <g stroke="null" id="svg_1">
   <path fill="#ffffff" stroke="null" d="m405.57838,11l-294.55034,0c-13.73215,0 -24.90382,11.59156 -24.90382,25.83984l0,36.19588l-14.81777,0c-7.64086,0 -13.83545,6.42742 -13.83545,14.35547s6.19459,14.35547 13.83545,14.35547l14.81777,0l0,55.59299l-14.81777,0c-7.64086,0 -13.83545,6.42742 -13.83545,14.35547s6.19459,14.35547 13.83545,14.35547l14.81777,0l0,55.59394l-14.81777,0c-7.64086,0 -13.83545,6.42742 -13.83545,14.35547s6.19459,14.35547 13.83545,14.35547l14.81777,0l0,55.59394l-14.81777,0c-7.64086,0 -13.83545,6.42742 -13.83545,14.35547s6.19459,14.35547 13.83545,14.35547l14.81777,0l0,55.59299l-14.81777,0c-7.64086,0 -13.83545,6.42742 -13.83545,14.35547s6.19459,14.35547 13.83545,14.35547l14.81777,0l0,36.19588c0,14.24828 11.17167,25.83984 24.90382,25.83984l294.55034,0c24.23418,0 43.95062,-20.45654 43.95062,-45.60254l0,-398.79492c0,-25.146 -19.71552,-45.60254 -43.95062,-45.60254zm16.27972,444.39745c0,9.31383 -7.30235,16.8916 -16.27972,16.8916l-291.78325,0l0,-33.32478l14.81777,0c7.64086,0 13.83545,-6.42742 13.83545,-14.35547s-6.19459,-14.35547 -13.83545,-14.35547l-14.81777,0l0,-55.59299l14.81777,0c7.64086,0 13.83545,-6.42742 13.83545,-14.35547s-6.19459,-14.35547 -13.83545,-14.35547l-14.81777,0l0,-55.59394l14.81777,0c7.64086,0 13.83545,-6.42742 13.83545,-14.35547s-6.19459,-14.35547 -13.83545,-14.35547l-14.81777,0l0,-55.59394l14.81777,0c7.64086,0 13.83545,-6.42742 13.83545,-14.35547s-6.19459,-14.35547 -13.83545,-14.35547l-14.81777,0l0,-55.59299l14.81777,0c7.64086,0 13.83545,-6.42742 13.83545,-14.35547s-6.19459,-14.35547 -13.83545,-14.35547l-14.81777,0l0,-33.32478l291.78325,0c8.97644,0 16.27972,7.57682 16.27972,16.8916l0,398.79492z" id="svg_2"/>
   <path fill="#ffffff" stroke="null" d="m366.54764,410.25333l-65.9988,0c-7.64086,0 -13.83545,6.42742 -13.83545,14.35547s6.19459,14.35547 13.83545,14.35547l65.9988,0c7.64086,0 13.83545,-6.42742 13.83545,-14.35547s-6.19459,-14.35547 -13.83545,-14.35547z" id="svg_3"/>
   <path fill="#ffffff" stroke="null" d="m366.54764,73.03572l-169.12089,0c-7.64086,0 -13.83545,6.42742 -13.83545,14.35547l0,77.89469c0,7.92805 6.19459,14.35547 13.83545,14.35547l169.12089,0c7.64086,0 13.83545,-6.42742 13.83545,-14.35547l0,-77.89469c0,-7.92805 -6.19459,-14.35547 -13.83545,-14.35547zm-13.83545,77.89469l-141.44998,0l0,-49.18375l141.44998,0l0,49.18375z" id="svg_4"/>
  </g>
 </g>

</svg>